<svg xmlns="http://www.w3.org/2000/svg" width="78" height="19" viewBox="0 0 78 19" fill="none">
  <g clip-path="url(#clip0_933_193)">
    <mask id="mask0_933_193" style="mask-type:luminance" maskUnits="userSpaceOnUse" x="0" y="0" width="78" height="19">
      <path d="M77.1558 0.864258H0.329224V18.1353H77.1558V0.864258Z" fill="white"/>
    </mask>
    <g mask="url(#mask0_933_193)">
      <path d="M8.73846 17.7968C9.8962 17.7968 10.9325 17.6039 11.8472 17.218C12.7764 16.8321 13.5625 16.3175 14.2057 15.6743C14.8489 15.0311 15.3062 14.3164 15.5778 13.5303L12.6406 12.1153C12.369 12.8871 11.8901 13.5303 11.204 14.0449C10.5323 14.5451 9.71039 14.7953 8.73846 14.7953C7.7951 14.7953 6.96611 14.5738 6.25143 14.1306C5.53677 13.6875 4.97934 13.0729 4.57912 12.2868C4.19321 11.5007 4.00025 10.5859 4.00025 9.5425C4.00025 8.49911 4.19321 7.59147 4.57912 6.81963C4.97934 6.0335 5.53677 5.41889 6.25143 4.97579C6.96611 4.5327 7.7951 4.31115 8.73846 4.31115C9.71039 4.31115 10.5323 4.56844 11.204 5.08299C11.8901 5.58326 12.369 6.21931 12.6406 6.99116L15.5778 5.57611C15.3062 4.78998 14.8489 4.07532 14.2057 3.43212C13.5625 2.78893 12.7764 2.27437 11.8472 1.88845C10.9325 1.50253 9.8962 1.30957 8.73846 1.30957C7.58073 1.30957 6.50873 1.51682 5.52248 1.93133C4.55054 2.33153 3.70008 2.90327 2.97113 3.64652C2.24217 4.37548 1.67759 5.24736 1.27738 6.26219C0.877169 7.26272 0.677063 8.35619 0.677063 9.5425C0.677063 10.7289 0.877169 11.8223 1.27738 12.8228C1.69188 13.8233 2.26362 14.6952 2.99257 15.4385C3.72153 16.1817 4.57198 16.7606 5.54393 17.1751C6.53017 17.5896 7.59505 17.7968 8.73846 17.7968Z" fill="#272727"/>
      <path d="M25.7072 17.7968C26.9079 17.7968 28.0227 17.5896 29.0518 17.1751C30.081 16.7606 30.9743 16.1817 31.7319 15.4385C32.5037 14.6809 33.104 13.8019 33.5328 12.8014C33.9616 11.8008 34.176 10.7146 34.176 9.5425C34.176 8.37044 33.9616 7.28416 33.5328 6.28363C33.1183 5.2831 32.5251 4.41121 31.7533 3.66796C30.9958 2.92471 30.1024 2.34583 29.0733 1.93133C28.0442 1.51682 26.9222 1.30957 25.7072 1.30957C24.4923 1.30957 23.3703 1.51682 22.3412 1.93133C21.3121 2.34583 20.4116 2.92471 19.6397 3.66796C18.8822 4.41121 18.289 5.2831 17.8602 6.28363C17.4457 7.28416 17.2385 8.37044 17.2385 9.5425C17.2385 10.7146 17.4528 11.8008 17.8817 12.8014C18.3105 13.8019 18.9036 14.6809 19.6612 15.4385C20.433 16.1817 21.3335 16.7606 22.3626 17.1751C23.3917 17.5896 24.5066 17.7968 25.7072 17.7968ZM25.7072 14.7953C24.7353 14.7953 23.8563 14.5738 23.0701 14.1306C22.2983 13.6732 21.6837 13.0515 21.2263 12.2653C20.7832 11.4792 20.5616 10.5716 20.5616 9.5425C20.5616 8.51336 20.7832 7.60576 21.2263 6.81963C21.6837 6.0335 22.2983 5.41889 23.0701 4.97579C23.8563 4.5327 24.7353 4.31115 25.7072 4.31115C26.6792 4.31115 27.5511 4.5327 28.3229 4.97579C29.1091 5.41889 29.7236 6.0335 30.1668 6.81963C30.6241 7.60576 30.8528 8.51336 30.8528 9.5425C30.8528 10.5716 30.6241 11.4792 30.1668 12.2653C29.7236 13.0515 29.1091 13.6732 28.3229 14.1306C27.5511 14.5738 26.6792 14.7953 25.7072 14.7953Z" fill="#272727"/>
      <path d="M36.533 17.837H41.7428C43.4723 17.837 44.9732 17.494 46.2452 16.8079C47.5174 16.1218 48.5036 15.1784 49.2039 13.9778C49.9043 12.7629 50.2545 11.3836 50.2545 9.8399C50.2545 8.29624 49.9043 6.92408 49.2039 5.72345C48.5036 4.52281 47.5174 3.57946 46.2452 2.89338C44.9732 2.20729 43.4723 1.86426 41.7428 1.86426H36.533V17.837ZM39.8561 14.9426V4.75865H41.8286C42.872 4.75865 43.7725 4.9659 44.53 5.38041C45.2876 5.7949 45.8736 6.38093 46.2881 7.13848C46.717 7.89603 46.9313 8.79652 46.9313 9.8399C46.9313 10.869 46.717 11.7695 46.2881 12.5413C45.8736 13.2989 45.2876 13.892 44.53 14.3209C43.7725 14.7354 42.872 14.9426 41.8286 14.9426H39.8561Z" fill="#272727"/>
      <path d="M52.3826 17.5391H63.1238V14.6448H55.7058V10.9785H62.695V8.08416H55.7058V4.4608H63.1238V1.56641H52.3826V17.5391Z" fill="#272727"/>
      <path d="M66.145 17.5396H76.9723V14.7524H70.3686L74.0348 10.9789C74.9926 10.007 75.6928 9.12087 76.1361 8.32043C76.593 7.50571 76.8219 6.6624 76.8219 5.79051C76.8219 4.89003 76.6002 4.10391 76.1577 3.43212C75.7144 2.76034 75.0926 2.23864 74.2924 1.86701C73.4914 1.49538 72.5624 1.30957 71.505 1.30957C70.6617 1.30957 69.8541 1.48109 69.0822 1.82413C68.3104 2.15288 67.6529 2.62455 67.1098 3.23915C66.5666 3.85377 66.2093 4.57559 66.0378 5.40459L68.9322 6.34795C69.1466 5.66187 69.4825 5.15446 69.9399 4.82571C70.3973 4.48267 70.9189 4.31115 71.505 4.31115C72.0767 4.31115 72.548 4.48267 72.9201 4.82571C73.3058 5.15446 73.4986 5.61184 73.4986 6.19787C73.4986 6.52661 73.413 6.86251 73.2417 7.20555C73.0841 7.54859 72.7841 7.97739 72.3408 8.49191C71.9123 8.9922 71.2763 9.67829 70.433 10.5502L66.145 14.9668V17.5396Z" fill="#00955F"/>
    </g>
  </g>
  <defs>
    <clipPath id="clip0_933_193">
      <rect width="77" height="17.271" fill="white" transform="translate(0.329224 0.864258)"/>
    </clipPath>
  </defs>
</svg>