<svg width="360" height="1162" viewBox="0 0 360 1162" fill="none" xmlns="http://www.w3.org/2000/svg">
<rect width="360" height="1162" fill="white"/>
<rect width="360" height="1162" fill="url(#paint0_linear_933_991)"/>
<g clip-path="url(#clip0_933_991)">
<path fill-rule="evenodd" clip-rule="evenodd" d="M331.923 653.996C324.806 674.095 305.601 688.495 283.028 688.495C254.394 688.495 231.182 665.327 231.182 636.748C231.182 608.168 254.394 585 283.028 585C305.601 585 324.806 599.4 331.923 619.498H316.067C309.836 607.633 297.379 599.539 283.027 599.539C262.438 599.539 245.747 616.197 245.747 636.748C245.747 657.297 262.438 673.957 283.027 673.957C297.379 673.957 309.836 665.862 316.067 653.996H331.923Z" fill="#00955F" fill-opacity="0.06"/>
<path d="M321.818 634.163L316.703 634.128C316.566 633.761 316.496 633.139 316.496 632.265C316.496 630.148 317.245 628.353 318.743 626.881C320.262 625.408 322.313 624.672 324.893 624.672C327.404 624.672 329.42 625.385 330.94 626.812C332.46 628.215 333.22 629.952 333.22 632.023C333.22 634.922 331.746 637.246 328.797 638.995L324.547 641.514C323.787 641.997 323.28 642.504 323.027 643.033H333.393V647.589H316.358C316.358 645.38 316.75 643.47 317.533 641.859C318.339 640.226 319.709 638.845 321.644 637.718L325.308 635.578C326.206 635.049 326.839 634.531 327.208 634.025C327.576 633.496 327.761 632.863 327.761 632.127C327.761 631.367 327.496 630.735 326.966 630.229C326.459 629.722 325.722 629.469 324.755 629.469C323.741 629.469 322.958 629.78 322.405 630.401C321.875 631.022 321.61 631.816 321.61 632.783C321.61 633.266 321.679 633.726 321.818 634.163Z" fill="#00955F" fill-opacity="0.06"/>
<path fill-rule="evenodd" clip-rule="evenodd" d="M283.028 662.129C297.072 662.129 308.457 650.766 308.457 636.748C308.457 622.731 297.072 611.367 283.028 611.367C268.984 611.367 257.599 622.731 257.599 636.748C257.599 650.766 268.984 662.129 283.028 662.129ZM283.03 648.576C289.575 648.576 294.88 643.281 294.88 636.748C294.88 630.216 289.575 624.92 283.03 624.92C276.485 624.92 271.18 630.216 271.18 636.748C271.18 643.281 276.485 648.576 283.03 648.576Z" fill="#00955F" fill-opacity="0.06"/>
</g>
<g clip-path="url(#clip1_933_991)">
<path fill-rule="evenodd" clip-rule="evenodd" d="M346.373 280.883C343.909 287.841 337.262 292.825 329.448 292.825C319.536 292.825 311.501 284.805 311.501 274.913C311.501 265.02 319.536 257 329.448 257C337.262 257 343.909 261.985 346.373 268.942H340.884C338.728 264.835 334.415 262.033 329.447 262.033C322.321 262.033 316.543 267.799 316.543 274.913C316.543 282.026 322.321 287.793 329.447 287.793C334.415 287.793 338.728 284.991 340.884 280.883H346.373Z" fill="#00955F" fill-opacity="0.06"/>
<path d="M342.875 274.018L341.105 274.006C341.057 273.878 341.033 273.663 341.033 273.361C341.033 272.628 341.292 272.007 341.811 271.497C342.337 270.987 343.047 270.732 343.94 270.732C344.809 270.732 345.507 270.979 346.033 271.473C346.559 271.959 346.822 272.56 346.822 273.277C346.822 274.281 346.312 275.085 345.291 275.69L343.82 276.562C343.557 276.73 343.382 276.905 343.294 277.088H346.882V278.665H340.985C340.985 277.901 341.121 277.239 341.392 276.682C341.671 276.117 342.145 275.639 342.815 275.248L344.083 274.508C344.394 274.324 344.614 274.145 344.741 273.97C344.869 273.787 344.932 273.568 344.932 273.313C344.932 273.05 344.841 272.831 344.657 272.656C344.482 272.481 344.227 272.393 343.892 272.393C343.541 272.393 343.27 272.501 343.079 272.716C342.895 272.931 342.803 273.205 342.803 273.54C342.803 273.707 342.827 273.867 342.875 274.018Z" fill="#00955F" fill-opacity="0.06"/>
<path fill-rule="evenodd" clip-rule="evenodd" d="M329.448 283.698C334.31 283.698 338.25 279.765 338.25 274.913C338.25 270.06 334.31 266.127 329.448 266.127C324.587 266.127 320.646 270.06 320.646 274.913C320.646 279.765 324.587 283.698 329.448 283.698ZM329.449 279.007C331.715 279.007 333.551 277.174 333.551 274.913C333.551 272.651 331.715 270.818 329.449 270.818C327.183 270.818 325.347 272.651 325.347 274.913C325.347 277.174 327.183 279.007 329.449 279.007Z" fill="#00955F" fill-opacity="0.06"/>
</g>
<g clip-path="url(#clip2_933_991)">
<path fill-rule="evenodd" clip-rule="evenodd" d="M83.7124 542.43C78.7167 556.538 65.2366 566.646 49.3917 566.646C29.2931 566.646 13 550.383 13 530.323C13 510.262 29.2931 494 49.3917 494C65.2366 494 78.7167 504.108 83.7124 518.215H72.5827C68.2094 509.887 59.465 504.205 49.3909 504.205C34.9393 504.205 23.2238 515.898 23.2238 530.323C23.2238 544.747 34.9393 556.441 49.3909 556.441C59.465 556.441 68.2094 550.759 72.5827 542.43H83.7124Z" fill="#00955F" fill-opacity="0.06"/>
<path d="M76.6197 528.508L73.0298 528.484C72.9331 528.225 72.8845 527.789 72.8845 527.175C72.8845 525.69 73.4099 524.43 74.4611 523.396C75.528 522.363 76.9673 521.846 78.7782 521.846C80.5407 521.846 81.9555 522.346 83.0227 523.348C84.0896 524.333 84.6234 525.552 84.6234 527.006C84.6234 529.041 83.5886 530.672 81.5188 531.899L78.5353 533.668C78.0019 534.007 77.6464 534.362 77.4686 534.734H84.7446V537.932H72.7873C72.7873 536.381 73.0623 535.041 73.6122 533.91C74.1781 532.763 75.1398 531.794 76.4979 531.003L79.0693 529.501C79.6997 529.13 80.1445 528.766 80.403 528.411C80.6618 528.039 80.7911 527.595 80.7911 527.078C80.7911 526.546 80.6053 526.101 80.2331 525.746C79.8776 525.391 79.3602 525.213 78.6811 525.213C77.9694 525.213 77.42 525.431 77.0319 525.867C76.6597 526.303 76.4739 526.86 76.4739 527.539C76.4739 527.878 76.5225 528.201 76.6197 528.508Z" fill="#00955F" fill-opacity="0.06"/>
<path fill-rule="evenodd" clip-rule="evenodd" d="M49.3924 548.139C59.2501 548.139 67.2414 540.162 67.2414 530.323C67.2414 520.484 59.2501 512.508 49.3924 512.508C39.5346 512.508 31.5431 520.484 31.5431 530.323C31.5431 540.162 39.5346 548.139 49.3924 548.139ZM49.3941 538.626C53.988 538.626 57.7119 534.909 57.7119 530.323C57.7119 525.738 53.988 522.021 49.3941 522.021C44.8001 522.021 41.076 525.738 41.076 530.323C41.076 534.909 44.8001 538.626 49.3941 538.626Z" fill="#00955F" fill-opacity="0.06"/>
</g>
<defs>
<linearGradient id="paint0_linear_933_991" x1="180" y1="425.169" x2="180" y2="3040.95" gradientUnits="userSpaceOnUse">
<stop stop-color="white"/>
<stop offset="1" stop-color="#05A77A" stop-opacity="0.17"/>
</linearGradient>
<clipPath id="clip0_933_991">
<rect width="102.211" height="104" fill="white" transform="translate(231.182 585)"/>
</clipPath>
<clipPath id="clip1_933_991">
<rect width="35.3808" height="36" fill="white" transform="translate(311.501 257)"/>
</clipPath>
<clipPath id="clip2_933_991">
<rect width="71.7445" height="73" fill="white" transform="translate(13 494)"/>
</clipPath>
</defs>
</svg>
