<svg width="1440" height="1024" viewBox="0 0 1440 1024" fill="none" xmlns="http://www.w3.org/2000/svg">
<g clip-path="url(#clip0_941_1256)">
<rect width="1440" height="1024" fill="#F3F3F3"/>
<g clip-path="url(#clip1_941_1256)">
<path fill-rule="evenodd" clip-rule="evenodd" d="M427.254 504.326C405.971 564.429 348.542 607.49 281.038 607.49C195.413 607.49 126 538.208 126 452.745C126 367.282 195.413 298 281.038 298C348.542 298 405.971 341.061 427.254 401.163H379.839C361.207 365.683 323.953 341.476 281.035 341.476C219.467 341.476 169.556 391.292 169.556 452.745C169.556 514.196 219.467 564.014 281.035 564.014C323.953 564.014 361.207 539.807 379.839 504.326H427.254Z" fill="#00955F" fill-opacity="0.06"/>
<path d="M397.037 445.017L381.743 444.914C381.331 443.813 381.124 441.955 381.124 439.341C381.124 433.011 383.362 427.644 387.84 423.241C392.385 418.837 398.517 416.635 406.232 416.635C413.741 416.635 419.769 418.768 424.315 423.034C428.86 427.231 431.134 432.425 431.134 438.618C431.134 447.288 426.726 454.237 417.908 459.466L405.197 467C402.925 468.445 401.41 469.959 400.653 471.541H431.651V485.165H380.709C380.709 478.56 381.881 472.849 384.224 468.032C386.635 463.147 390.732 459.019 396.518 455.647L407.472 449.249C410.158 447.666 412.053 446.118 413.154 444.604C414.257 443.022 414.808 441.13 414.808 438.927C414.808 436.657 414.016 434.765 412.431 433.251C410.916 431.738 408.712 430.981 405.819 430.981C402.787 430.981 400.446 431.91 398.793 433.767C397.207 435.625 396.415 437.999 396.415 440.889C396.415 442.334 396.622 443.71 397.037 445.017Z" fill="#00955F" fill-opacity="0.06"/>
<path fill-rule="evenodd" clip-rule="evenodd" d="M281.04 528.645C323.036 528.645 357.081 494.664 357.081 452.746C357.081 410.828 323.036 376.848 281.04 376.848C239.043 376.848 204.997 410.828 204.997 452.746C204.997 494.664 239.043 528.645 281.04 528.645ZM281.047 488.118C300.618 488.118 316.483 472.281 316.483 452.747C316.483 433.212 300.618 417.376 281.047 417.376C261.475 417.376 245.609 433.212 245.609 452.747C245.609 472.281 261.475 488.118 281.047 488.118Z" fill="#00955F" fill-opacity="0.06"/>
</g>
<g clip-path="url(#clip2_941_1256)">
<path fill-rule="evenodd" clip-rule="evenodd" d="M1281.34 678.148C1270.39 709.07 1240.84 731.223 1206.12 731.223C1162.06 731.223 1126.35 695.58 1126.35 651.612C1126.35 607.643 1162.06 572 1206.12 572C1240.84 572 1270.39 594.153 1281.34 625.074H1256.95C1247.36 606.821 1228.19 594.367 1206.11 594.367C1174.44 594.367 1148.76 619.996 1148.76 651.612C1148.76 683.226 1174.44 708.856 1206.11 708.856C1228.19 708.856 1247.36 696.403 1256.95 678.148H1281.34Z" fill="#00955F" fill-opacity="0.06"/>
<path d="M1265.79 647.635L1257.93 647.582C1257.71 647.016 1257.61 646.06 1257.61 644.715C1257.61 641.458 1258.76 638.697 1261.06 636.432C1263.4 634.166 1266.56 633.033 1270.52 633.033C1274.39 633.033 1277.49 634.131 1279.83 636.325C1282.17 638.485 1283.34 641.157 1283.34 644.343C1283.34 648.803 1281.07 652.378 1276.53 655.069L1269.99 658.945C1268.82 659.688 1268.04 660.467 1267.65 661.281H1283.6V668.29H1257.39C1257.39 664.892 1258 661.953 1259.2 659.476C1260.44 656.962 1262.55 654.838 1265.53 653.104L1271.16 649.812C1272.54 648.998 1273.52 648.201 1274.09 647.423C1274.65 646.608 1274.94 645.635 1274.94 644.502C1274.94 643.334 1274.53 642.361 1273.71 641.582C1272.93 640.803 1271.8 640.414 1270.31 640.414C1268.75 640.414 1267.55 640.892 1266.7 641.847C1265.88 642.803 1265.47 644.024 1265.47 645.511C1265.47 646.255 1265.58 646.963 1265.79 647.635Z" fill="#00955F" fill-opacity="0.06"/>
<path fill-rule="evenodd" clip-rule="evenodd" d="M1206.12 690.659C1227.72 690.659 1245.24 673.177 1245.24 651.612C1245.24 630.047 1227.72 612.564 1206.12 612.564C1184.51 612.564 1167 630.047 1167 651.612C1167 673.177 1184.51 690.659 1206.12 690.659ZM1206.12 669.809C1216.19 669.809 1224.35 661.662 1224.35 651.612C1224.35 641.562 1216.19 633.415 1206.12 633.415C1196.05 633.415 1187.89 641.562 1187.89 651.612C1187.89 661.662 1196.05 669.809 1206.12 669.809Z" fill="#00955F" fill-opacity="0.06"/>
</g>
<g clip-path="url(#clip3_941_1256)">
<path fill-rule="evenodd" clip-rule="evenodd" d="M1483.43 366.631C1475.63 388.662 1454.57 404.447 1429.83 404.447C1398.44 404.447 1373 379.051 1373 347.723C1373 316.396 1398.44 291 1429.83 291C1454.57 291 1475.63 306.784 1483.43 328.816H1466.05C1459.22 315.81 1445.56 306.936 1429.83 306.936C1407.26 306.936 1388.97 325.197 1388.97 347.723C1388.97 370.249 1407.26 388.51 1429.83 388.51C1445.56 388.51 1459.22 379.637 1466.05 366.631H1483.43Z" fill="#00955F" fill-opacity="0.06"/>
<path fill-rule="evenodd" clip-rule="evenodd" d="M1429.83 375.545C1445.23 375.545 1457.7 363.089 1457.7 347.724C1457.7 332.358 1445.23 319.902 1429.83 319.902C1414.44 319.902 1401.96 332.358 1401.96 347.724C1401.96 363.089 1414.44 375.545 1429.83 375.545ZM1429.83 360.689C1437.01 360.689 1442.82 354.884 1442.82 347.724C1442.82 340.563 1437.01 334.758 1429.83 334.758C1422.66 334.758 1416.84 340.563 1416.84 347.724C1416.84 354.884 1422.66 360.689 1429.83 360.689Z" fill="#00955F" fill-opacity="0.06"/>
</g>
</g>
<defs>
<clipPath id="clip0_941_1256">
<rect width="1440" height="1024" fill="white"/>
</clipPath>
<clipPath id="clip1_941_1256">
<rect width="305.651" height="311" fill="white" transform="translate(126 298)"/>
</clipPath>
<clipPath id="clip2_941_1256">
<rect width="157.248" height="160" fill="white" transform="translate(1126.35 572)"/>
</clipPath>
<clipPath id="clip3_941_1256">
<rect width="112.039" height="114" fill="white" transform="translate(1373 291)"/>
</clipPath>
</defs>
</svg>
