<svg xmlns="http://www.w3.org/2000/svg" width="39" height="39" viewBox="0 0 39 39" fill="none">
  <g clip-path="url(#clip0_933_189)">
    <path fill-rule="evenodd" clip-rule="evenodd" d="M37.7779 25.8737C35.1089 33.4107 27.9072 38.8106 19.4421 38.8106C8.70452 38.8106 0 30.1226 0 19.4053C0 8.68805 8.70452 0 19.4421 0C27.9072 0 35.1089 5.3999 37.7779 12.9369H31.8319C29.4954 8.48753 24.8237 5.45196 19.4417 5.45196C11.721 5.45196 5.46201 11.699 5.46201 19.4053C5.46201 27.1114 11.721 33.3587 19.4417 33.3587C24.8237 33.3587 29.4954 30.3231 31.8319 25.8737H37.7779Z" fill="#00955F"/>
    <path d="M33.9885 18.4361L32.0706 18.4232C32.0189 18.2852 31.993 18.0521 31.993 17.7243C31.993 16.9305 32.2736 16.2575 32.8353 15.7053C33.4052 15.1531 34.1742 14.877 35.1416 14.877C36.0833 14.877 36.8391 15.1445 37.4093 15.6794C37.9792 16.2057 38.2644 16.8571 38.2644 17.6337C38.2644 18.7209 37.7116 19.5923 36.6058 20.2481L35.0119 21.1928C34.7269 21.374 34.537 21.5639 34.442 21.7623H38.3292V23.4708H31.941C31.941 22.6425 32.0879 21.9263 32.3817 21.3223C32.6841 20.7097 33.1979 20.192 33.9234 19.7692L35.2971 18.9668C35.634 18.7683 35.8716 18.5742 36.0097 18.3844C36.148 18.1859 36.217 17.9487 36.217 17.6725C36.217 17.3878 36.1178 17.1505 35.9189 16.9607C35.729 16.7709 35.4526 16.6759 35.0898 16.6759C34.7096 16.6759 34.4161 16.7925 34.2087 17.0254C34.0099 17.2583 33.9106 17.5561 33.9106 17.9185C33.9106 18.0997 33.9366 18.2723 33.9885 18.4361Z" fill="#00955F"/>
    <path fill-rule="evenodd" clip-rule="evenodd" d="M19.4423 28.9233C24.7087 28.9233 28.978 24.6621 28.978 19.4055C28.978 14.1489 24.7087 9.8877 19.4423 9.8877C14.1758 9.8877 9.90637 14.1489 9.90637 19.4055C9.90637 24.6621 14.1758 28.9233 19.4423 28.9233ZM19.4432 23.8412C21.8975 23.8412 23.887 21.8552 23.887 19.4056C23.887 16.9559 21.8975 14.9701 19.4432 14.9701C16.9888 14.9701 14.9993 16.9559 14.9993 19.4056C14.9993 21.8552 16.9888 23.8412 19.4432 23.8412Z" fill="#00955F"/>
  </g>
  <defs>
    <clipPath id="clip0_933_189">
      <rect width="38.3292" height="39" fill="white"/>
    </clipPath>
  </defs>
</svg>